<mxfile host="app.diagrams.net" modified="2024-02-04T10:16:56.165Z" agent="Mozilla/5.0 (Macintosh; Intel Mac OS X 10_15_7) AppleWebKit/537.36 (KHTML, like Gecko) Chrome/120.0.0.0 Safari/537.36" version="21.6.5" etag="p1tPQb6qyKnLq7uU42TQ" type="github">
  <diagram name="第 1 页" id="gQ1l12OR258NZxLZBclW">
    <mxGraphModel>
      <root>
        <mxCell id="0" />
        <mxCell id="1" parent="0" />
      </root>
    </mxGraphModel>
  </diagram>
</mxfile>
